<?xml version="1.0" standalone="no"?>
<svg class="icon" viewBox="0 0 1024 1024" version="1.1" xmlns="http://www.w3.org/2000/svg" width="200" height="200">
    <path d="M980.758 908.858c-23.028-173.993-139.706-315.746-295.276-377.667 70.621-54.245 116.678-139.194 116.678-235.402C802.671 132.542 669.617 0 506.371 0S210.583 132.542 210.583 295.788c0 97.743 47.592 184.228 120.772 237.961-151.988 63.456-265.595 203.674-288.112 375.108-3.582 29.169 5.117 58.339 24.564 80.344 19.446 22.005 47.08 34.799 76.25 34.799h699.4c29.169 0 57.315-12.794 76.25-34.799 18.935-22.517 28.146-51.686 24.052-80.344zM506.371 104.908c105.419 0 190.881 85.461 190.881 190.881s-85.461 190.881-190.881 190.881-190.881-85.461-190.881-190.881 85.973-190.881 190.881-190.881z m-358.732 813.673c25.587-180.134 181.669-315.234 364.362-315.234s338.263 135.1 364.362 315.234H147.638z" fill="#1296db"></path>
</svg>